<?xml version="1.0" standalone="no"?>
<!DOCTYPE svg PUBLIC "-//W3C//DTD SVG 20010904//EN"
 "http://www.w3.org/TR/2001/REC-SVG-20010904/DTD/svg10.dtd">
<svg version="1.0" xmlns="http://www.w3.org/2000/svg"
 width="260.000000pt" height="260.000000pt" viewBox="0 0 260.000000 260.000000"
 preserveAspectRatio="xMidYMid meet">
<metadata>
Created by potrace 1.11, written by Peter Selinger 2001-2013
</metadata>
<g transform="translate(0.000000,260.000000) scale(0.100000,-0.100000)"
fill="#000000" stroke="none">
<path d="M0 1300 l0 -1300 1300 0 1300 0 0 1300 0 1300 -1300 0 -1300 0 0
-1300z m1515 881 c151 -40 335 -147 427 -249 109 -121 189 -266 222 -404 l21
-88 185 -2 185 -3 0 -130 0 -130 -186 -3 -185 -2 -13 -63 c-56 -271 -259 -517
-522 -633 -232 -102 -534 -97 -753 13 -101 51 -180 107 -251 178 -56 56 -152
182 -143 190 10 9 201 115 202 113 101 -156 253 -270 416 -314 85 -23 243 -23
330 -1 316 82 531 380 506 702 -22 289 -221 526 -506 602 -86 22 -243 22 -330
-1 -142 -38 -287 -138 -375 -258 l-42 -56 -97 55 c-53 30 -96 61 -96 68 0 22
84 127 156 196 135 128 264 195 450 234 98 20 295 13 399 -14z m-124 -644
c114 -55 170 -181 134 -302 -33 -114 -157 -197 -273 -181 -58 8 -138 52 -169
93 l-25 33 -509 0 -510 0 3 128 3 127 508 3 508 2 32 37 c50 56 118 85 197 80
36 -1 81 -11 101 -20z"/>
</g>
</svg>
