<svg width="1440px" height="653px" viewBox="0 0 1440 653" version="1.1" xmlns="http://www.w3.org/2000/svg" xmlns:xlink="http://www.w3.org/1999/xlink">
    <defs>
        <rect id="path-1" x="0" y="0" width="1440" height="652"></rect>
        <filter x="-2.1%" y="-4.7%" width="104.2%" height="109.4%" filterUnits="objectBoundingBox" id="filter-2">
            <feMorphology radius="20" operator="erode" in="SourceAlpha" result="shadowSpreadInner1"></feMorphology>
            <feGaussianBlur stdDeviation="20" in="shadowSpreadInner1" result="shadowBlurInner1"></feGaussianBlur>
            <feOffset dx="0" dy="1" in="shadowBlurInner1" result="shadowOffsetInner1"></feOffset>
            <feComposite in="shadowOffsetInner1" in2="SourceAlpha" operator="arithmetic" k2="-1" k3="1" result="shadowInnerInner1"></feComposite>
            <feColorMatrix values="0 0 0 0 0.8   0 0 0 0 0.501960784   0 0 0 0 1  0 0 0 1 0" type="matrix" in="shadowInnerInner1"></feColorMatrix>
        </filter>
    </defs>
    <g id="Page-1" stroke="none" stroke-width="1" fill="none" fill-rule="evenodd">
        <g id="About-Desktop" transform="translate(0.000000, -3020.000000)">
            <g id="Tools-Dial" transform="translate(0.000000, 3020.000000)">
                <polygon id="Path" fill="#5A3274" points="1439.99219 413 390.689414 413 369.992188 392 1439.77978 392"></polygon>
                <polygon id="Middle-Bar-Copy" fill="#5A3274" points="953.587426 530.769874 507.546369 530.769874 497.587426 521.230126 953.587426 521.230126"></polygon>
                <polygon id="Right-quadrangle" fill="#5A3274" points="1440.25788 371.122156 1077.11328 371.460937 1315.27372 133.358319 1315.27372 133.358319 1440.32708 133.90502"></polygon>
                <g id="Lines-on-LEFT" transform="translate(119.750000, 133.000000)" stroke="#5A3274" stroke-linecap="square">
                    <path d="M229.25,2.375 L367.25,239" id="Line-3" stroke-width="10"></path>
                    <path d="M452.25,2.375 L510.25,239" id="Line-5" stroke-width="10"></path>
                    <path d="M237.25,239 L0.25,1.75" id="Line" stroke-width="10"></path>
                    <path d="M600.75,0 L600.75,239" id="Line-7" stroke-width="3"></path>
                    <path d="M528.25,1.75 L557.25,239" id="Line-8" stroke-width="3"></path>
                    <path d="M303.25,1.75 L421.25,239.625" id="Line-9" stroke-width="3"></path>
                    <path d="M375.75,1.375 L464.25,239.625" id="Line-10" stroke-width="3"></path>
                    <path d="M153.25,1.75 L329.25,239" id="Line-10-Copy" stroke-width="3"></path>
                    <path d="M75.25,1.75 L281.25,239.625" id="Line-10-Copy-2" stroke-width="3"></path>
                </g>
                <g id="Lines-on-RIGHT" transform="translate(1005.500000, 254.000000) scale(-1, 1) translate(-1005.500000, -254.000000) translate(764.000000, 134.000000)" stroke="#5A3274" stroke-linecap="square">
                    <path d="M154.25,1.375 L292.25,238" id="Line-3-Copy" stroke-width="10" transform="translate(223.250000, 119.500000) scale(-1, -1) translate(-223.250000, -119.500000) "></path>
                    <path d="M377.25,1.375 L435.25,238" id="Line-5-Copy" stroke-width="10" transform="translate(406.250000, 119.625000) scale(-1, -1) translate(-406.250000, -119.625000) "></path>
                    <path d="M453.25,0.75 L482.25,238" id="Line-8-Copy" stroke-width="3" transform="translate(467.750000, 119.000000) scale(-1, -1) translate(-467.750000, -119.000000) "></path>
                    <path d="M228.25,0.75 L346.25,238.625" id="Line-9-Copy" stroke-width="3" transform="translate(287.250000, 119.500000) scale(-1, -1) translate(-287.250000, -119.500000) "></path>
                    <path d="M300.75,0.375 L389.25,238.625" id="Line-10-Copy-5" stroke-width="3" transform="translate(344.750000, 119.500000) scale(-1, -1) translate(-344.750000, -119.500000) "></path>
                    <path d="M78.25,0.75 L254.25,238" id="Line-10-Copy-4" stroke-width="3" transform="translate(166.250000, 119.562500) scale(-1, -1) translate(-166.250000, -119.562500) "></path>
                    <path d="M0.25,0.75 L206.25,238.625" id="Line-10-Copy-3" stroke-width="3" transform="translate(103.250000, 119.625000) scale(-1, -1) translate(-103.250000, -119.625000) "></path>
                </g>
                <text id="Paper-&amp;-Pencil" transform="translate(186.161165, 184.161165) rotate(45.000000) translate(-186.161165, -184.161165) " font-family="Rokkitt-Regular, Rokkitt" font-size="28" font-weight="normal" fill="#E4D8CB">
                    <tspan x="99.6611652" y="191.161165">Paper &amp; Pencil</tspan>
                </text>
                <text id="Photoshop" transform="translate(268.000000, 206.000000) rotate(49.000000) translate(-268.000000, -206.000000) " font-family="Rokkitt-Regular, Rokkitt" font-size="28" font-weight="normal" fill="#E4D8CB">
                    <tspan x="165" y="213">Photoshop</tspan>
                </text>
                <text id="Illustrator" transform="translate(341.000000, 211.000000) rotate(53.000000) translate(-341.000000, -211.000000) " font-family="Rokkitt-Regular, Rokkitt" font-size="28" font-weight="normal" fill="#E4D8CB">
                    <tspan x="238" y="218">Illustrator</tspan>
                </text>
                <text id="Sketch" transform="translate(408.000000, 216.000000) rotate(60.000000) translate(-408.000000, -216.000000) " font-family="Rokkitt-Regular, Rokkitt" font-size="28" font-weight="normal" fill="#E4D8CB">
                    <tspan x="305" y="223">Sketch</tspan>
                </text>
                <text id="Balsamiq" transform="translate(476.000000, 224.000000) rotate(64.000000) translate(-476.000000, -224.000000) " font-family="Rokkitt-Regular, Rokkitt" font-size="28" font-weight="normal" fill="#E4D8CB">
                    <tspan x="373" y="231">Balsamiq</tspan>
                </text>
                <text id="Paper-by-53" transform="translate(539.000000, 226.000000) rotate(69.000000) translate(-539.000000, -226.000000) " font-family="Rokkitt-Regular, Rokkitt" font-size="28" font-weight="normal" fill="#E4D8CB">
                    <tspan x="436" y="233">Paper by 53</tspan>
                </text>
                <text id="Axure" transform="translate(607.000000, 228.000000) rotate(76.000000) translate(-607.000000, -228.000000) " font-family="Rokkitt-Regular, Rokkitt" font-size="28" font-weight="normal" fill="#E4D8CB">
                    <tspan x="504" y="235">Axure</tspan>
                </text>
                <text id="Proto.io" transform="translate(669.000000, 235.000000) rotate(83.000000) translate(-669.000000, -235.000000) " font-family="Rokkitt-Regular, Rokkitt" font-size="28" font-weight="normal" fill="#E4D8CB">
                    <tspan x="566" y="242">Proto.io</tspan>
                </text>
                <text id="Prott" transform="translate(728.000000, 236.000000) rotate(90.000000) translate(-728.000000, -236.000000) " font-family="Rokkitt-Regular, Rokkitt" font-size="28" font-weight="normal" fill="#E4D8CB">
                    <tspan x="625" y="243">Prott</tspan>
                </text>
                <text id="InVision" transform="translate(773.000000, 235.000000) rotate(277.000000) translate(-773.000000, -235.000000) " font-family="Rokkitt-Regular, Rokkitt" font-size="28" font-weight="normal" fill="#E4D8CB">
                    <tspan x="779.092" y="242">InVision</tspan>
                </text>
                <text id="Lookback" transform="translate(834.000000, 232.000000) rotate(284.000000) translate(-834.000000, -232.000000) " font-family="Rokkitt-Regular, Rokkitt" font-size="28" font-weight="normal" fill="#E4D8CB">
                    <tspan x="827.548" y="239">Lookback</tspan>
                </text>
                <text id="Silverback" transform="translate(903.000000, 230.000000) rotate(290.000000) translate(-903.000000, -230.000000) " font-family="Rokkitt-Regular, Rokkitt" font-size="28" font-weight="normal" fill="#E4D8CB">
                    <tspan x="884.368" y="237">Silverback</tspan>
                </text>
                <text id="Umbraco-CMS" transform="translate(966.000000, 224.000000) rotate(296.000000) translate(-966.000000, -224.000000) " font-family="Rokkitt-Regular, Rokkitt" font-size="28" font-weight="normal" fill="#E4D8CB">
                    <tspan x="898.704" y="231">Umbraco CMS</tspan>
                </text>
                <text id="Orchard-CMS" transform="translate(1032.000000, 221.000000) rotate(300.000000) translate(-1032.000000, -221.000000) " font-family="Rokkitt-Regular, Rokkitt" font-size="28" font-weight="normal" fill="#E4D8CB">
                    <tspan x="974.224" y="228">Orchard CMS</tspan>
                </text>
                <text id="Basecamp" transform="translate(1100.000000, 212.000000) rotate(307.000000) translate(-1100.000000, -212.000000) " font-family="Rokkitt-Regular, Rokkitt" font-size="28" font-weight="normal" fill="#E4D8CB">
                    <tspan x="1086.716" y="219">Basecamp</tspan>
                </text>
                <text id="Trello" transform="translate(1173.000000, 206.000000) rotate(311.000000) translate(-1173.000000, -206.000000) " font-family="Rokkitt-Regular, Rokkitt" font-size="28" font-weight="normal" fill="#E4D8CB">
                    <tspan x="1208.744" y="213">Trello</tspan>
                </text>
                <text id="JIRA" transform="translate(1236.000000, 203.000000) rotate(315.000000) translate(-1236.000000, -203.000000) " font-family="Rokkitt-Regular, Rokkitt" font-size="28" font-weight="normal" fill="#E4D8CB">
                    <tspan x="1284.148" y="210">JIRA</tspan>
                </text>
                <rect id="Top-rectangle-Helio" fill="#CC80FF" x="978" y="424" width="240" height="98"></rect>
                <rect id="Bottom-rectangle-Helio" fill="#CC80FF" x="978" y="527" width="240" height="98"></rect>
                <text id="Google-Analytics" font-family="Rokkitt-Regular, Rokkitt" font-size="28" font-weight="normal" fill="#E4D8CB">
                    <tspan x="514.012" y="480">Google Analytics</tspan>
                </text>
                <text id="BugHerd" font-family="Rokkitt-Regular, Rokkitt" font-size="28" font-weight="normal" fill="#E4D8CB">
                    <tspan x="742.52" y="480">BugHerd</tspan>
                </text>
                <text id="HotJar" font-family="Rokkitt-Regular, Rokkitt" font-size="28" font-weight="normal" fill="#E4D8CB">
                    <tspan x="879.024" y="480">HotJar</tspan>
                </text>
                <text id="Atom" font-family="Rokkitt-Regular, Rokkitt" font-size="28" font-weight="normal" fill="#E4D8CB">
                    <tspan x="890.308" y="583">Atom</tspan>
                </text>
                <text id="GitHub" font-family="Rokkitt-Regular, Rokkitt" font-size="28" font-weight="normal" fill="#E4D8CB">
                    <tspan x="684.266" y="583">GitHub</tspan>
                </text>
                <text id="Grey-Matter" font-family="Rokkitt-Regular, Rokkitt" font-size="28" font-weight="normal" fill="#19141A">
                    <tspan x="1026.324" y="583">Grey Matter</tspan>
                </text>
                <text id="Elbow-Grease" font-family="Rokkitt-Regular, Rokkitt" font-size="28" font-weight="normal" fill="#19141A">
                    <tspan x="1016.64" y="480">Elbow Grease</tspan>
                </text>
                <path d="M113.68272,145.5 L618.5,650.5" id="Needle" stroke="#CC80FF" stroke-width="5"></path>
                <text id="Tools-I-Use" font-family="Rokkitt-Regular, Rokkitt" font-size="48" font-weight="normal" fill="#CC80FF">
                    <tspan x="607" y="79">Tools I Use</tspan>
                </text>
                <g id="Dial-Box-outer-line">
                    <use fill="black" fill-opacity="1" filter="url(#filter-2)" xlink:href="#path-1"></use>
                    <rect stroke="#CACACA" stroke-width="5" stroke-linejoin="square" x="2.5" y="2.5" width="1435" height="647"></rect>
                </g>
                <rect id="Dial-Box-thin-inner-line" stroke="#CACACA" stroke-width="2" x="16" y="15" width="1408" height="622"></rect>
            </g>
        </g>
    </g>
</svg>
